<svg width="24" height="24" viewBox="0 0 24 24" fill="none" xmlns="http://www.w3.org/2000/svg">
<path d="M19.7969 13.4019C17.7589 12.4219 14.4799 11.7979 11.4969 11.7979C9.66895 11.7979 8.54595 8.63494 8.23295 6.56295L9.41495 4.55595C9.67996 4.10597 10.0578 3.73297 10.5112 3.47383C10.9646 3.21468 11.4777 3.07837 11.9999 3.07837C12.5222 3.07837 13.0353 3.21468 13.4887 3.47383C13.9421 3.73297 14.3199 4.10597 14.5849 4.55595L19.7969 13.4019ZM21.4699 16.2409L21.6099 16.4769C21.8785 16.9327 22.0218 17.4513 22.0252 17.9803C22.0287 18.5093 21.8922 19.0298 21.6297 19.489C21.3671 19.9482 20.9878 20.3298 20.5302 20.5952C20.0726 20.8605 19.5529 21.0002 19.0239 20.9999H4.97495C4.44605 21 3.92654 20.8602 3.46907 20.5948C3.0116 20.3294 2.63243 19.9477 2.36999 19.4885C2.10755 19.0294 1.97117 18.5089 1.97468 17.9801C1.97818 17.4512 2.12145 16.9326 2.38995 16.4769L6.90695 8.81295C7.32395 11.5729 9.05095 13.7979 11.4969 13.7979C14.2439 13.7979 18.2069 14.3339 21.4699 16.2409Z" fill="white"/>
</svg>
